<svg width="940" height="48" viewBox="0 0 940 48" fill="none" xmlns="http://www.w3.org/2000/svg">
<line x1="780" y1="26" x2="940" y2="26" stroke="black" stroke-width="2"/>
<path d="M206.048 24.096L206.528 19.344H206.288L204.464 24.432L194.912 42H190.16V8.4H196.208V25.968L195.68 30.864H195.92L197.84 25.632L207.392 8.4H212.096V42H206.048V24.096ZM235.466 40.656C234.634 41.36 233.514 41.872 232.106 42.192C230.73 42.512 229.354 42.672 227.978 42.672C226.25 42.672 224.634 42.384 223.13 41.808C221.658 41.2 220.362 40.208 219.242 38.832C218.122 37.456 217.242 35.648 216.602 33.408C215.962 31.168 215.642 28.416 215.642 25.152C215.642 21.76 215.994 18.944 216.698 16.704C217.434 14.464 218.378 12.688 219.53 11.376C220.714 10.032 222.058 9.088 223.562 8.544C225.066 8 226.586 7.728 228.122 7.728C229.69 7.728 231.05 7.856 232.202 8.112C233.386 8.368 234.346 8.656 235.082 8.976L233.882 14.304C233.274 13.984 232.554 13.744 231.722 13.584C230.922 13.392 229.962 13.296 228.842 13.296C226.634 13.296 224.938 14.256 223.754 16.176C222.57 18.096 221.978 21.104 221.978 25.2C221.978 26.96 222.106 28.576 222.362 30.048C222.65 31.488 223.082 32.736 223.658 33.792C224.266 34.848 225.018 35.664 225.914 36.24C226.842 36.816 227.946 37.104 229.226 37.104C230.346 37.104 231.306 36.96 232.106 36.672C232.906 36.352 233.626 35.984 234.266 35.568L235.466 40.656ZM258.274 13.968H250.306V42H244.258V13.968H236.29V8.4H258.274V13.968ZM276.689 24.096L277.169 19.344H276.929L275.105 24.432L265.553 42H260.801V8.4H266.849V25.968L266.321 30.864H266.561L268.481 25.632L278.033 8.4H282.737V42H276.689V24.096ZM302.267 27.792H293.099V42H287.051V8.4H293.099V22.224H302.267V8.4H308.315V42H302.267V27.792ZM327.86 27.792H318.692V42H312.644V8.4H318.692V22.224H327.86V8.4H333.908V42H327.86V27.792ZM337.47 25.2C337.47 19.504 338.446 15.168 340.398 12.192C342.35 9.216 345.326 7.728 349.326 7.728C351.406 7.728 353.198 8.144 354.702 8.976C356.206 9.776 357.438 10.944 358.398 12.48C359.358 13.984 360.062 15.824 360.51 18C360.99 20.144 361.23 22.544 361.23 25.2C361.23 30.896 360.222 35.232 358.206 38.208C356.222 41.184 353.262 42.672 349.326 42.672C347.214 42.672 345.406 42.272 343.902 41.472C342.43 40.64 341.214 39.472 340.254 37.968C339.294 36.432 338.59 34.592 338.142 32.448C337.694 30.272 337.47 27.856 337.47 25.2ZM343.806 25.2C343.806 26.896 343.902 28.48 344.094 29.952C344.286 31.392 344.606 32.64 345.054 33.696C345.502 34.752 346.062 35.584 346.734 36.192C347.438 36.8 348.302 37.104 349.326 37.104C351.182 37.104 352.574 36.16 353.502 34.272C354.43 32.384 354.894 29.36 354.894 25.2C354.894 23.568 354.798 22.032 354.606 20.592C354.414 19.12 354.094 17.856 353.646 16.8C353.23 15.712 352.67 14.864 351.966 14.256C351.262 13.616 350.382 13.296 349.326 13.296C345.646 13.296 343.806 17.264 343.806 25.2ZM395.555 24.672L396.227 18.24H395.987L394.211 24L388.739 35.808H386.723L380.915 23.952L379.139 18.144H378.851L379.763 24.624V42H374.051V8.4H379.859L386.867 22.944L388.019 27.12H388.211L389.315 22.848L395.891 8.4H401.603V42H395.555V24.672ZM415.574 23.04L416.294 27.504H416.534L417.158 22.896L420.95 8.4H427.19L419.702 31.632C419.126 33.456 418.582 35.04 418.07 36.384C417.558 37.696 416.998 38.8 416.39 39.696C415.782 40.592 415.094 41.264 414.326 41.712C413.59 42.128 412.678 42.336 411.59 42.336C410.726 42.336 409.974 42.256 409.334 42.096C408.726 41.936 408.086 41.632 407.414 41.184L408.902 36.096C409.35 36.352 409.75 36.528 410.102 36.624C410.454 36.688 410.822 36.736 411.206 36.768C412.39 36.768 413.206 35.552 413.654 33.12L403.286 8.4H410.438L415.574 23.04ZM439.01 8.4H444.722V23.424L446.114 22.752L451.154 8.4H457.922L451.922 23.184L450.002 24.768L452.354 26.736L459.122 42H451.826L446.21 27.36H444.722V42H439.01V26.784L437.666 27.456L432.002 42H424.994L431.714 27.216L433.922 25.392L431.762 23.664L425.522 8.4H432.53L437.522 22.848H439.01V8.4ZM478.935 40.656C478.103 41.36 476.983 41.872 475.575 42.192C474.199 42.512 472.823 42.672 471.447 42.672C469.719 42.672 468.103 42.384 466.599 41.808C465.127 41.2 463.831 40.208 462.711 38.832C461.591 37.456 460.711 35.648 460.071 33.408C459.431 31.168 459.111 28.416 459.111 25.152C459.111 21.76 459.463 18.944 460.167 16.704C460.903 14.464 461.847 12.688 462.999 11.376C464.183 10.032 465.527 9.088 467.031 8.544C468.535 8 470.055 7.728 471.591 7.728C473.159 7.728 474.519 7.856 475.671 8.112C476.855 8.368 477.815 8.656 478.551 8.976L477.351 14.304C476.743 13.984 476.023 13.744 475.191 13.584C474.391 13.392 473.431 13.296 472.311 13.296C470.103 13.296 468.407 14.256 467.223 16.176C466.039 18.096 465.447 21.104 465.447 25.2C465.447 26.96 465.575 28.576 465.831 30.048C466.119 31.488 466.551 32.736 467.127 33.792C467.735 34.848 468.487 35.664 469.383 36.24C470.311 36.816 471.415 37.104 472.695 37.104C473.815 37.104 474.775 36.96 475.575 36.672C476.375 36.352 477.095 35.984 477.735 35.568L478.935 40.656ZM489.16 27.6H487.864V42H481.816V8.4H487.864V23.328L489.064 22.752L496.12 8.4H502.936L495.256 22.56L493 24.336L495.304 26.16L504.184 42H496.792L489.16 27.6ZM519.588 34.416H511.668L509.7 42H503.7L513.444 8.16H518.196L527.988 42H521.652L519.588 34.416ZM512.964 29.424H518.532L516.612 21.6L515.844 16.32H515.652L514.836 21.648L512.964 29.424ZM549.059 42H543.011V28.608L540.419 29.52L535.091 42H528.131L533.603 30.576L536.003 28.656C534.307 28.176 532.899 27.136 531.779 25.536C530.659 23.904 530.099 21.632 530.099 18.72C530.099 16.672 530.387 14.96 530.963 13.584C531.539 12.208 532.355 11.104 533.411 10.272C534.467 9.44 535.731 8.848 537.203 8.496C538.675 8.112 540.291 7.92 542.051 7.92C542.467 7.92 542.979 7.936 543.587 7.968C544.227 8 544.867 8.048 545.507 8.112C546.147 8.176 546.771 8.272 547.379 8.4C548.019 8.496 548.579 8.608 549.059 8.736V42ZM543.011 13.728C542.723 13.632 542.435 13.568 542.147 13.536C541.859 13.504 541.507 13.488 541.091 13.488C540.451 13.488 539.843 13.584 539.267 13.776C538.691 13.936 538.195 14.24 537.779 14.688C537.363 15.104 537.027 15.664 536.771 16.368C536.547 17.072 536.435 17.952 536.435 19.008C536.435 21.024 536.867 22.48 537.731 23.376C538.627 24.24 539.779 24.672 541.187 24.672H543.011V13.728ZM570.582 27.6H569.286V42H563.238V8.4H569.286V23.328L570.486 22.752L577.542 8.4H584.358L576.678 22.56L574.422 24.336L576.726 26.16L585.606 42H578.214L570.582 27.6ZM603.982 13.968H598.894C598.67 20.048 598.366 25.136 597.982 29.232C597.598 33.296 596.862 36.4 595.774 38.544C595.39 39.312 594.942 39.952 594.43 40.464C593.95 40.944 593.454 41.328 592.942 41.616C592.462 41.872 591.966 42.048 591.454 42.144C590.942 42.272 590.478 42.336 590.062 42.336C589.39 42.336 588.798 42.272 588.286 42.144C587.774 42.048 587.294 41.888 586.846 41.664L587.518 36.192C588.094 36.416 588.67 36.432 589.246 36.24C589.822 36.016 590.302 35.488 590.686 34.656C591.07 33.952 591.406 32.928 591.694 31.584C591.982 30.208 592.222 28.448 592.414 26.304C592.638 24.16 592.798 21.616 592.894 18.672C593.022 15.728 593.118 12.304 593.182 8.4H610.03V42H603.982V13.968ZM627.963 34.416H620.043L618.075 42H612.075L621.819 8.16H626.571L636.363 42H630.027L627.963 34.416ZM621.339 29.424H626.907L624.987 21.6L624.219 16.32H624.027L623.211 21.648L621.339 29.424ZM656.216 40.656C655.384 41.36 654.264 41.872 652.856 42.192C651.48 42.512 650.104 42.672 648.728 42.672C647 42.672 645.384 42.384 643.88 41.808C642.408 41.2 641.112 40.208 639.992 38.832C638.872 37.456 637.992 35.648 637.352 33.408C636.712 31.168 636.392 28.416 636.392 25.152C636.392 21.76 636.744 18.944 637.448 16.704C638.184 14.464 639.128 12.688 640.28 11.376C641.464 10.032 642.808 9.088 644.312 8.544C645.816 8 647.336 7.728 648.872 7.728C650.44 7.728 651.8 7.856 652.952 8.112C654.136 8.368 655.096 8.656 655.832 8.976L654.632 14.304C654.024 13.984 653.304 13.744 652.472 13.584C651.672 13.392 650.712 13.296 649.592 13.296C647.384 13.296 645.688 14.256 644.504 16.176C643.32 18.096 642.728 21.104 642.728 25.2C642.728 26.96 642.856 28.576 643.112 30.048C643.4 31.488 643.832 32.736 644.408 33.792C645.016 34.848 645.768 35.664 646.664 36.24C647.592 36.816 648.696 37.104 649.976 37.104C651.096 37.104 652.056 36.96 652.856 36.672C653.656 36.352 654.376 35.984 655.016 35.568L656.216 40.656ZM676.794 40.656C675.962 41.36 674.842 41.872 673.434 42.192C672.058 42.512 670.682 42.672 669.306 42.672C667.578 42.672 665.962 42.384 664.458 41.808C662.986 41.2 661.69 40.208 660.57 38.832C659.45 37.456 658.57 35.648 657.93 33.408C657.29 31.168 656.97 28.416 656.97 25.152C656.97 21.76 657.322 18.944 658.026 16.704C658.762 14.464 659.706 12.688 660.858 11.376C662.042 10.032 663.386 9.088 664.89 8.544C666.394 8 667.914 7.728 669.45 7.728C671.018 7.728 672.378 7.856 673.53 8.112C674.714 8.368 675.674 8.656 676.41 8.976L675.21 14.304C674.602 13.984 673.882 13.744 673.05 13.584C672.25 13.392 671.29 13.296 670.17 13.296C667.962 13.296 666.266 14.256 665.082 16.176C663.898 18.096 663.306 21.104 663.306 25.2C663.306 26.96 663.434 28.576 663.69 30.048C663.978 31.488 664.41 32.736 664.986 33.792C665.594 34.848 666.346 35.664 667.242 36.24C668.17 36.816 669.274 37.104 670.554 37.104C671.674 37.104 672.634 36.96 673.434 36.672C674.234 36.352 674.954 35.984 675.594 35.568L676.794 40.656ZM695.564 24.096L696.044 19.344H695.804L693.98 24.432L684.428 42H679.676V8.4H685.724V25.968L685.196 30.864H685.436L687.356 25.632L696.908 8.4H701.612V42H695.564V24.096ZM713.27 27.6H711.974V42H705.926V8.4H711.974V23.328L713.174 22.752L720.23 8.4H727.046L719.366 22.56L717.11 24.336L719.414 26.16L728.294 42H720.902L713.27 27.6ZM743.697 34.416H735.777L733.809 42H727.809L737.553 8.16H742.305L752.097 42H745.761L743.697 34.416ZM737.073 29.424H742.641L740.721 21.6L739.953 16.32H739.761L738.945 21.648L737.073 29.424Z" fill="black"/>
<line y1="26" x2="160" y2="26" stroke="black" stroke-width="2"/>
</svg>
